<mxfile host="app.diagrams.net" modified="2023-12-13T19:10:39.621Z" agent="Mozilla/5.0 (Windows NT 10.0; Win64; x64) AppleWebKit/537.36 (KHTML, like Gecko) Chrome/120.0.0.0 Safari/537.36" etag="rP2AlcNtRKqSgPnqul5Y" version="22.1.8" type="device">
  <diagram id="C5RBs43oDa-KdzZeNtuy" name="Page-1">
    <mxGraphModel dx="712" dy="744" grid="1" gridSize="10" guides="1" tooltips="1" connect="1" arrows="1" fold="1" page="1" pageScale="1" pageWidth="827" pageHeight="1169" math="0" shadow="0">
      <root>
        <mxCell id="WIyWlLk6GJQsqaUBKTNV-0" />
        <mxCell id="WIyWlLk6GJQsqaUBKTNV-1" parent="WIyWlLk6GJQsqaUBKTNV-0" />
        <mxCell id="y0qZH-wMQjxV35jG6V6o-94" value="" style="ellipse;html=1;shape=startState;fillColor=#000000;strokeColor=#ff0000;" vertex="1" parent="WIyWlLk6GJQsqaUBKTNV-1">
          <mxGeometry x="240" y="260" width="30" height="30" as="geometry" />
        </mxCell>
        <mxCell id="y0qZH-wMQjxV35jG6V6o-95" value="" style="edgeStyle=orthogonalEdgeStyle;html=1;verticalAlign=bottom;endArrow=open;endSize=8;strokeColor=#ff0000;rounded=0;" edge="1" source="y0qZH-wMQjxV35jG6V6o-94" parent="WIyWlLk6GJQsqaUBKTNV-1">
          <mxGeometry relative="1" as="geometry">
            <mxPoint x="255" y="330" as="targetPoint" />
          </mxGeometry>
        </mxCell>
        <mxCell id="y0qZH-wMQjxV35jG6V6o-96" value="Создание рейса" style="html=1;whiteSpace=wrap;" vertex="1" parent="WIyWlLk6GJQsqaUBKTNV-1">
          <mxGeometry x="200" y="330" width="110" height="50" as="geometry" />
        </mxCell>
        <mxCell id="y0qZH-wMQjxV35jG6V6o-98" value="" style="html=1;verticalAlign=bottom;endArrow=classic;rounded=0;exitX=0.5;exitY=1;exitDx=0;exitDy=0;endFill=1;" edge="1" parent="WIyWlLk6GJQsqaUBKTNV-1" source="y0qZH-wMQjxV35jG6V6o-96">
          <mxGeometry width="80" relative="1" as="geometry">
            <mxPoint x="270" y="447" as="sourcePoint" />
            <mxPoint x="255" y="430" as="targetPoint" />
            <Array as="points" />
            <mxPoint as="offset" />
          </mxGeometry>
        </mxCell>
        <mxCell id="y0qZH-wMQjxV35jG6V6o-99" value="Диспетчер&amp;nbsp;&lt;br&gt;формирует летную&lt;br&gt;бригаду" style="html=1;whiteSpace=wrap;" vertex="1" parent="WIyWlLk6GJQsqaUBKTNV-1">
          <mxGeometry x="200" y="430" width="110" height="50" as="geometry" />
        </mxCell>
        <mxCell id="y0qZH-wMQjxV35jG6V6o-100" value="" style="html=1;verticalAlign=bottom;endArrow=classic;rounded=0;exitX=0.5;exitY=1;exitDx=0;exitDy=0;endFill=1;entryX=0.5;entryY=0;entryDx=0;entryDy=0;" edge="1" parent="WIyWlLk6GJQsqaUBKTNV-1" target="y0qZH-wMQjxV35jG6V6o-101">
          <mxGeometry width="80" relative="1" as="geometry">
            <mxPoint x="254.7" y="480" as="sourcePoint" />
            <mxPoint x="254.7" y="530" as="targetPoint" />
            <Array as="points" />
            <mxPoint as="offset" />
          </mxGeometry>
        </mxCell>
        <mxCell id="y0qZH-wMQjxV35jG6V6o-110" style="edgeStyle=orthogonalEdgeStyle;rounded=0;orthogonalLoop=1;jettySize=auto;html=1;exitX=0.5;exitY=1;exitDx=0;exitDy=0;entryX=0.5;entryY=0;entryDx=0;entryDy=0;" edge="1" parent="WIyWlLk6GJQsqaUBKTNV-1" source="y0qZH-wMQjxV35jG6V6o-101" target="y0qZH-wMQjxV35jG6V6o-106">
          <mxGeometry relative="1" as="geometry" />
        </mxCell>
        <mxCell id="y0qZH-wMQjxV35jG6V6o-101" value="Администраор&amp;nbsp;&lt;br&gt;ищет подходящий&amp;nbsp;&amp;nbsp;&lt;br&gt;рейс для бригады" style="html=1;whiteSpace=wrap;" vertex="1" parent="WIyWlLk6GJQsqaUBKTNV-1">
          <mxGeometry x="195" y="535" width="120" height="65" as="geometry" />
        </mxCell>
        <mxCell id="y0qZH-wMQjxV35jG6V6o-106" value="Нашелся подходящий&amp;nbsp;&lt;br&gt;рейс" style="rhombus;whiteSpace=wrap;html=1;fontColor=#000000;fillColor=#ffffc0;strokeColor=#ff0000;" vertex="1" parent="WIyWlLk6GJQsqaUBKTNV-1">
          <mxGeometry x="205" y="650" width="100" height="90" as="geometry" />
        </mxCell>
        <mxCell id="y0qZH-wMQjxV35jG6V6o-107" value="no" style="edgeStyle=orthogonalEdgeStyle;html=1;align=left;verticalAlign=bottom;endArrow=open;endSize=8;strokeColor=#ff0000;rounded=0;entryX=0.5;entryY=0;entryDx=0;entryDy=0;" edge="1" source="y0qZH-wMQjxV35jG6V6o-106" parent="WIyWlLk6GJQsqaUBKTNV-1" target="y0qZH-wMQjxV35jG6V6o-112">
          <mxGeometry x="-1" relative="1" as="geometry">
            <mxPoint x="400" y="695" as="targetPoint" />
          </mxGeometry>
        </mxCell>
        <mxCell id="y0qZH-wMQjxV35jG6V6o-108" value="yes" style="edgeStyle=orthogonalEdgeStyle;html=1;align=left;verticalAlign=top;endArrow=open;endSize=8;strokeColor=#ff0000;rounded=0;exitX=0;exitY=0.5;exitDx=0;exitDy=0;" edge="1" source="y0qZH-wMQjxV35jG6V6o-106" parent="WIyWlLk6GJQsqaUBKTNV-1">
          <mxGeometry x="-0.625" y="-25" relative="1" as="geometry">
            <mxPoint x="160" y="730" as="targetPoint" />
            <Array as="points">
              <mxPoint x="160" y="695" />
            </Array>
            <mxPoint as="offset" />
          </mxGeometry>
        </mxCell>
        <mxCell id="y0qZH-wMQjxV35jG6V6o-111" value="Вывести информацию о рейсе" style="html=1;whiteSpace=wrap;" vertex="1" parent="WIyWlLk6GJQsqaUBKTNV-1">
          <mxGeometry x="120" y="730" width="80" height="60" as="geometry" />
        </mxCell>
        <mxCell id="y0qZH-wMQjxV35jG6V6o-112" value="Вывести&amp;nbsp;&lt;br&gt;сообщение об отсутсствии подходящего рейса" style="html=1;whiteSpace=wrap;" vertex="1" parent="WIyWlLk6GJQsqaUBKTNV-1">
          <mxGeometry x="315" y="730" width="125" height="60" as="geometry" />
        </mxCell>
        <mxCell id="y0qZH-wMQjxV35jG6V6o-113" value="" style="ellipse;html=1;shape=endState;fillColor=#000000;strokeColor=#ff0000;" vertex="1" parent="WIyWlLk6GJQsqaUBKTNV-1">
          <mxGeometry x="240" y="820" width="30" height="30" as="geometry" />
        </mxCell>
        <mxCell id="y0qZH-wMQjxV35jG6V6o-115" style="edgeStyle=orthogonalEdgeStyle;rounded=0;orthogonalLoop=1;jettySize=auto;html=1;exitX=0.5;exitY=1;exitDx=0;exitDy=0;entryX=0;entryY=0.5;entryDx=0;entryDy=0;" edge="1" parent="WIyWlLk6GJQsqaUBKTNV-1" target="y0qZH-wMQjxV35jG6V6o-113">
          <mxGeometry relative="1" as="geometry">
            <mxPoint x="159.7" y="790" as="sourcePoint" />
            <mxPoint x="160" y="840" as="targetPoint" />
            <Array as="points">
              <mxPoint x="160" y="835" />
            </Array>
          </mxGeometry>
        </mxCell>
        <mxCell id="y0qZH-wMQjxV35jG6V6o-116" style="edgeStyle=orthogonalEdgeStyle;rounded=0;orthogonalLoop=1;jettySize=auto;html=1;exitX=0.526;exitY=1;exitDx=0;exitDy=0;entryX=1;entryY=0.5;entryDx=0;entryDy=0;exitPerimeter=0;" edge="1" parent="WIyWlLk6GJQsqaUBKTNV-1" source="y0qZH-wMQjxV35jG6V6o-112" target="y0qZH-wMQjxV35jG6V6o-113">
          <mxGeometry relative="1" as="geometry">
            <mxPoint x="377.2" y="790" as="sourcePoint" />
            <mxPoint x="377.2" y="840" as="targetPoint" />
            <Array as="points">
              <mxPoint x="377" y="790" />
              <mxPoint x="377" y="835" />
            </Array>
          </mxGeometry>
        </mxCell>
      </root>
    </mxGraphModel>
  </diagram>
</mxfile>
